<svg xmlns="http://www.w3.org/2000/svg" version="1.1" xmlns:xlink="http://www.w3.org/1999/xlink" width="32" height="32"
    x="0" y="0" viewBox="0 0 512 512" style="fill:#171717;storke:#171717" xml:space="preserve">
    <g>
        <path
            d="M256 0C167.453 0 0 12.484 0 59.734v51.2c0 8.875 5.887 16.894 17.367 23.879a129.008 129.008 0 0 0 9.551 43.636l32.645 222.028.257 1.789a8.482 8.482 0 0 0 2.91 5.285c17.528 30.664 109.79 44.715 193.27 44.715s175.742-14.051 193.273-44.715a8.48 8.48 0 0 0 2.91-5.281l32.903-223.829a129.166 129.166 0 0 0 9.547-43.625c11.5-7.015 17.367-15.027 17.367-23.882v-51.2C512 12.484 344.547 0 256 0zm0 17.066c154.602 0 238.934 28.184 238.934 42.668 0 4.582-8.465 10.536-24.899 16.532C424.27 60.786 342.863 51.199 256 51.199S87.73 60.785 41.965 76.266C25.53 70.27 17.066 64.316 17.066 59.734c0-14.484 84.332-42.668 238.934-42.668zm182.934 68.176A834.385 834.385 0 0 1 256 102.398 834.385 834.385 0 0 1 73.066 85.242 867.307 867.307 0 0 1 256 68.266a867.307 867.307 0 0 1 182.934 16.976zm29.566 88.684c-22.8 51.703-83.004 75.824-114.305 85.152a25.58 25.58 0 0 0-21.394-11.613H179.199a25.575 25.575 0 0 0-21.402 11.629 237.22 237.22 0 0 1-69.227-32.485 129.507 129.507 0 0 1-45.066-52.66l-4.309-29.308C84.293 160.62 166.32 170.668 256 170.668c89.883 0 172.074-10.094 216.8-26zm-289.3 90.61h153.6a8.533 8.533 0 0 1 0 17.066H179.2a8.533 8.533 0 0 1-8.532-8.536c0-4.71 3.82-8.53 8.531-8.53zm256.69 131.128a8.109 8.109 0 0 0-.773 1.828C431.922 413.242 362.238 435.2 256 435.2S80.078 413.242 76.887 397.492a8.362 8.362 0 0 0-.793-1.867L49.43 214.273a167.946 167.946 0 0 0 29.258 26.239 254.479 254.479 0 0 0 75.18 35.199c1.323 13.008 12.257 22.914 25.331 22.957h153.602c13.07-.043 24-9.945 25.332-22.945 30.293-8.852 74.437-26.93 104.422-61.375zm47.313-273.945c-.113.043-.2.125-.308.176-.2.105-.36.207-.563.312-.848.465-1.719.887-2.61 1.262C441.56 141.773 353.747 153.602 256 153.602S70.441 141.773 31.855 123.273c-.777-.328-1.535-.699-2.273-1.117h-.004a7.437 7.437 0 0 0-.879-.492c-8.523-4.664-11.633-8.672-11.633-10.73V83.398C61.883 111.332 184.582 119.465 256 119.465s194.117-8.133 238.934-36.067v27.536c0 2.058-3.118 6.074-11.73 10.785zm0 0"
            opacity="1" class=""></path>
        <path
            d="M93.32 311.367c-4.675.586-7.992 4.848-7.406 9.524l8.02 64.171a8.537 8.537 0 0 0 8.453 7.477 8.533 8.533 0 0 0 8.48-9.594l-8.02-64.168a8.582 8.582 0 0 0-9.527-7.41zM90.863 291.434a8.536 8.536 0 0 0 7.371-9.559l-1.28-9.898a8.628 8.628 0 0 0-9.56-7.375 8.547 8.547 0 0 0-5.664 3.25 8.544 8.544 0 0 0-1.707 6.308l1.282 9.899a8.533 8.533 0 0 0 8.449 7.441c.371 0 .738-.023 1.11-.066zm0 0"
            opacity="1"></path>
    </g>
</svg>