<svg xmlns="http://www.w3.org/2000/svg" version="1.1" xmlns:xlink="http://www.w3.org/1999/xlink" width="32" height="32"
	x="0" y="0" viewBox="0 0 512 512" style="fill:#171717;storke:#171717" xml:space="preserve">
	<g>
		<path
			d="M219.762 311.874A19.326 19.326 0 0 0 206 306.17a19.337 19.337 0 0 0-13.762 5.701c-3.677 3.676-5.701 8.564-5.701 13.763s2.024 10.086 5.702 13.764c3.677 3.675 8.563 5.698 13.762 5.698s10.085-2.023 13.759-5.699c3.678-3.676 5.703-8.563 5.703-13.762s-2.025-10.088-5.701-13.761zm-8.489 19.038a7.407 7.407 0 0 1-5.272 2.184 7.41 7.41 0 0 1-5.277-2.185c-1.41-1.409-2.187-3.284-2.187-5.277s.776-3.866 2.187-5.276c1.409-1.41 3.283-2.188 5.276-2.188s3.865.777 5.275 2.189a7.407 7.407 0 0 1 2.188 5.274 7.411 7.411 0 0 1-2.19 5.279zM269.762 311.874A19.326 19.326 0 0 0 256 306.17a19.337 19.337 0 0 0-13.762 5.701c-3.677 3.676-5.701 8.564-5.701 13.763s2.024 10.086 5.702 13.764c3.677 3.675 8.563 5.698 13.762 5.698s10.085-2.023 13.759-5.699c3.678-3.676 5.703-8.563 5.703-13.762s-2.025-10.088-5.701-13.761zm-8.489 19.038a7.407 7.407 0 0 1-5.272 2.184 7.41 7.41 0 0 1-5.277-2.185c-1.41-1.409-2.187-3.284-2.187-5.277s.776-3.866 2.187-5.276c1.409-1.41 3.283-2.188 5.276-2.188s3.865.777 5.275 2.189a7.407 7.407 0 0 1 2.188 5.274 7.411 7.411 0 0 1-2.19 5.279zM319.762 311.874A19.326 19.326 0 0 0 306 306.17a19.337 19.337 0 0 0-13.762 5.701c-3.677 3.676-5.701 8.564-5.701 13.763s2.024 10.086 5.702 13.764c3.677 3.675 8.563 5.698 13.762 5.698s10.085-2.023 13.759-5.699c3.678-3.676 5.703-8.563 5.703-13.762s-2.025-10.088-5.701-13.761zm-8.489 19.038a7.407 7.407 0 0 1-5.272 2.184 7.41 7.41 0 0 1-5.277-2.185c-1.41-1.409-2.187-3.284-2.187-5.277s.776-3.866 2.187-5.276c1.409-1.41 3.283-2.188 5.276-2.188s3.865.777 5.275 2.189a7.407 7.407 0 0 1 2.188 5.274 7.411 7.411 0 0 1-2.19 5.279zM69.762 311.874A19.326 19.326 0 0 0 56 306.17a19.337 19.337 0 0 0-13.762 5.701c-3.677 3.676-5.701 8.564-5.701 13.763s2.024 10.086 5.702 13.764c3.677 3.675 8.563 5.698 13.762 5.698s10.085-2.023 13.759-5.699c3.678-3.676 5.703-8.563 5.703-13.762s-2.025-10.088-5.701-13.761zm-8.489 19.038a7.407 7.407 0 0 1-5.272 2.184 7.41 7.41 0 0 1-5.277-2.185c-1.41-1.409-2.187-3.284-2.187-5.277s.776-3.866 2.187-5.276c1.409-1.41 3.283-2.188 5.276-2.188s3.865.777 5.275 2.189a7.407 7.407 0 0 1 2.188 5.274 7.411 7.411 0 0 1-2.19 5.279zM119.762 311.874A19.326 19.326 0 0 0 106 306.17a19.337 19.337 0 0 0-13.762 5.701c-3.677 3.676-5.701 8.564-5.701 13.763s2.024 10.086 5.702 13.764c3.677 3.675 8.563 5.698 13.762 5.698s10.085-2.023 13.759-5.699c3.678-3.676 5.703-8.563 5.703-13.762s-2.025-10.088-5.701-13.761zm-8.489 19.038a7.407 7.407 0 0 1-5.272 2.184 7.41 7.41 0 0 1-5.277-2.185c-1.41-1.409-2.187-3.284-2.187-5.277s.776-3.866 2.187-5.276c1.409-1.41 3.283-2.188 5.276-2.188s3.865.777 5.275 2.189a7.407 7.407 0 0 1 2.188 5.274 7.411 7.411 0 0 1-2.19 5.279zM169.762 311.874A19.326 19.326 0 0 0 156 306.17a19.337 19.337 0 0 0-13.762 5.701c-3.677 3.676-5.701 8.564-5.701 13.763s2.024 10.086 5.702 13.764c3.677 3.675 8.563 5.698 13.762 5.698s10.085-2.023 13.759-5.699c3.678-3.676 5.703-8.563 5.703-13.762s-2.025-10.088-5.701-13.761zm-8.489 19.038a7.407 7.407 0 0 1-5.272 2.184 7.41 7.41 0 0 1-5.277-2.185c-1.41-1.409-2.187-3.284-2.187-5.277s.776-3.866 2.187-5.276c1.409-1.41 3.283-2.188 5.276-2.188s3.865.777 5.275 2.189a7.407 7.407 0 0 1 2.188 5.274 7.411 7.411 0 0 1-2.19 5.279zM369.762 311.874A19.326 19.326 0 0 0 356 306.17a19.337 19.337 0 0 0-13.762 5.701c-3.677 3.676-5.701 8.564-5.701 13.763s2.024 10.086 5.702 13.764c3.677 3.675 8.563 5.698 13.762 5.698s10.085-2.023 13.759-5.699c3.678-3.676 5.703-8.563 5.703-13.762s-2.025-10.088-5.701-13.761zm-8.489 19.038a7.407 7.407 0 0 1-5.272 2.184 7.41 7.41 0 0 1-5.277-2.185c-1.41-1.409-2.187-3.284-2.187-5.277s.776-3.866 2.187-5.276c1.409-1.41 3.283-2.188 5.276-2.188s3.865.777 5.275 2.189a7.407 7.407 0 0 1 2.188 5.274 7.411 7.411 0 0 1-2.19 5.279zM419.762 311.874A19.326 19.326 0 0 0 406 306.17a19.337 19.337 0 0 0-13.762 5.701c-3.677 3.676-5.701 8.564-5.701 13.763s2.024 10.086 5.702 13.764c3.677 3.675 8.563 5.698 13.762 5.698s10.085-2.023 13.759-5.699c3.678-3.676 5.703-8.563 5.703-13.762s-2.025-10.088-5.701-13.761zm-8.489 19.038a7.407 7.407 0 0 1-5.272 2.184 7.41 7.41 0 0 1-5.277-2.185c-1.41-1.409-2.187-3.284-2.187-5.277s.776-3.866 2.187-5.276c1.409-1.41 3.283-2.188 5.276-2.188s3.865.777 5.275 2.189a7.407 7.407 0 0 1 2.188 5.274 7.411 7.411 0 0 1-2.19 5.279zM469.762 311.874A19.326 19.326 0 0 0 456 306.17a19.337 19.337 0 0 0-13.762 5.701c-3.677 3.676-5.701 8.564-5.701 13.763s2.024 10.086 5.702 13.764c3.677 3.675 8.563 5.698 13.762 5.698s10.085-2.023 13.759-5.699c3.678-3.676 5.703-8.563 5.703-13.762s-2.025-10.088-5.701-13.761zm-8.489 19.038a7.407 7.407 0 0 1-5.272 2.184 7.41 7.41 0 0 1-5.277-2.185c-1.41-1.409-2.187-3.284-2.187-5.277s.776-3.866 2.187-5.276c1.409-1.41 3.283-2.188 5.276-2.188s3.865.777 5.275 2.189a7.407 7.407 0 0 1 2.188 5.274 7.411 7.411 0 0 1-2.19 5.279z"
			opacity="1" class=""></path>
		<path
			d="M463.646 209.345c-14.77-25.533-30.164-45.278-39.568-56.433h3.769a6 6 0 0 0 6-6v-44.681a6 6 0 0 0-6-6h-18.811c.099-.396.16-.808.175-1.233 1.242-34.997-15.585-47.359-29.92-51.567-11.534-3.386-23.826-2.18-32.106-.572a88.182 88.182 0 0 0-10.2 2.599c-7.259-20.219-18.104-33.207-32.298-38.651-24.466-9.385-50.398 6.358-61.472 13.081l-.293.178C214.257-6.405 189.166 1.504 176.523 8.803c-9.051 5.226-15.624 12.072-19.543 16.895-2.693 3.313-4.441 5.942-5.562 8.03-24.26.017-41.254 6.498-50.545 19.293-12.495 17.209-6.092 39.293-4.808 43.21H84.152a6 6 0 0 0-6 6v44.681a6 6 0 0 0 6 6h3.771c-9.404 11.154-24.799 30.9-39.568 56.433-21.36 36.926-45.116 93.201-36.992 151.592 8.205 58.975 46.677 108.969 114.346 148.594.018.011.038.018.056.028.215.123 2.98.794 2.985.794h254.5c.006 0 2.768-.67 2.98-.792l.062-.03c67.669-39.625 106.141-89.619 114.346-148.594 8.124-58.391-15.632-114.666-36.992-151.592zM43.168 245.76h425.663c3.544 7.934 6.89 16.326 9.835 25.085H33.335c2.946-8.76 6.29-17.154 9.833-25.085zm64.393-152.99c-.068-.192-6.692-19.395 3.064-32.754 7.393-10.123 22.498-14.917 44.909-14.225.074.002.147.004.221.004a6 6 0 0 0 6-5.908v-.053c2.47-4.88 14.784-21.233 32.297-25.274 14.043-3.24 28.379 2.184 42.624 16.123.39.593.886 1.123 1.479 1.559 3.537 2.606 6.62.736 11.287-2.097 9.569-5.809 31.981-19.409 50.947-12.134 11.981 4.596 21.133 17.133 27.197 37.262l.006-.002c.28.93.782 1.799 1.496 2.513a6 6 0 0 0 8.072.379c4.355-1.929 29.788-10.04 46.059-.021 9.931 6.115 14.641 18.372 14 36.431a5.992 5.992 0 0 0 .177 1.659H107.724a5.98 5.98 0 0 0-.163-3.462zm-17.409 15.462h331.695v32.681H90.152zm13.716 44.681h304.266c5.919 6.511 26.252 29.813 45.125 62.441a337.006 337.006 0 0 1 9.903 18.407H48.837a337.238 337.238 0 0 1 9.75-18.139c18.881-32.707 39.342-56.17 45.281-62.709zm384.884 206.37c-7.617 54.753-43.674 101.534-107.149 139.07H130.396c-63.455-37.524-99.509-84.288-107.142-139.019-3.688-26.449-.339-52.57 6.386-76.489h452.721c6.723 23.91 10.068 50.01 6.391 76.438z"
			opacity="1" class=""></path>
	</g>
</svg>