<svg xmlns="http://www.w3.org/2000/svg" version="1.1" xmlns:xlink="http://www.w3.org/1999/xlink" width="32" height="32"
	x="0" y="0" viewBox="0 0 66 66" style="fill:#171717;storke:#171717" xml:space="preserve">
	<g>
		<path
			d="M8.93 47.38a2.88 2.88 0 1 0-.001-5.761 2.88 2.88 0 0 0 .001 5.761zm0-4.28c.77 0 1.4.63 1.4 1.4s-.63 1.4-1.4 1.4-1.4-.63-1.4-1.4.63-1.4 1.4-1.4zM29.69 35.84c2.43 0 4.2-.98 4.2-2.33s-1.76-2.33-4.2-2.33-4.2.98-4.2 2.33 1.77 2.33 4.2 2.33zm0-3.18c1.75 0 2.72.64 2.72.85s-.96.85-2.72.85c-1.75 0-2.72-.64-2.72-.85s.96-.85 2.72-.85zM14.46 35.1c1.13 0 2.05-.42 2.05-.94s-.92-.94-2.05-.94-2.05.42-2.05.94.92.94 2.05.94zM34.48 53.98a3.82 3.82 0 1 0 0-7.64 3.82 3.82 0 0 0 0 7.64zm0-6.15c1.29 0 2.34 1.05 2.34 2.34s-1.05 2.34-2.34 2.34-2.34-1.05-2.34-2.34 1.05-2.34 2.34-2.34z"
			opacity="1" class=""></path>
		<circle cx="13.99" cy="50.91" r=".98" opacity="1" class=""></circle>
		<path d="M44.53 60.71a1.52 1.52 0 1 0 .001-3.039 1.52 1.52 0 0 0-.001 3.039z" opacity="1" class=""></path>
		<path
			d="M53.18 45.79a.75.75 0 0 0-.04-.16c-.01-.03-.03-.06-.05-.09-.03-.05-.06-.1-.1-.14-.01-.01-.02-.03-.03-.04l-7.91-6.98a.76.76 0 0 0-.6-.18c-.34.05-.63.08-.91.08-1.96 0-3.33-.89-3.33-1.69 0-.36.29-.67.53-.86a.756.756 0 0 0 .01-1.13l-11.28-9.96a.742.742 0 0 0-.49-.18c-11.17 0-21.63 4.76-27.29 12.42-.06.07-.09.16-.12.25-.01.02-.01.04-.01.06-.01.05-.02.09-.02.14v17.31c0 .36.26.66.61.73l50.17 9.13c.04.01.09.01.13.01a.741.741 0 0 0 .74-.74v-6.68c0-.41-.33-.74-.74-.74-1.18 0-2.14-.96-2.14-2.14s.96-2.14 2.14-2.14c.41 0 .74-.33.74-.74V45.9c0-.04-.01-.07-.01-.11zM28.71 25.94 39.2 35.2c-.32.43-.48.9-.48 1.39 0 1.78 2.11 3.17 4.81 3.17.25 0 .51-.02.78-.05l5.71 5.04L3.65 36.8c5.48-6.66 14.93-10.79 25.06-10.86zm23.01 24.73c-1.64.34-2.88 1.8-2.88 3.54s1.24 3.2 2.88 3.54v5.13L3.03 54.02V38.2l48.7 8.35v4.12zM57.57 37.07c0-2.04-1.66-3.69-3.69-3.69s-3.69 1.66-3.69 3.69c0 2.04 1.66 3.69 3.69 3.69s3.69-1.65 3.69-3.69zm-3.69 2.22c-1.22 0-2.22-.99-2.22-2.22 0-1.22.99-2.22 2.22-2.22 1.22 0 2.22.99 2.22 2.22-.01 1.23-1 2.22-2.22 2.22zM38.62 20.02c0-1.84-1.5-3.34-3.34-3.34s-3.34 1.5-3.34 3.34 1.5 3.34 3.34 3.34 3.34-1.5 3.34-3.34zm-5.21 0c0-1.03.84-1.86 1.86-1.86s1.86.84 1.86 1.86c0 1.03-.84 1.86-1.86 1.86s-1.86-.83-1.86-1.86zM46.06 26.92c1.49 0 2.71-1.21 2.71-2.71 0-1.49-1.21-2.71-2.71-2.71s-2.71 1.21-2.71 2.71c0 1.49 1.21 2.71 2.71 2.71zm0-3.94a1.23 1.23 0 1 1 0 2.46 1.23 1.23 0 1 1 0-2.46z"
			opacity="1" class=""></path>
		<circle cx="52.46" cy="28.49" r=".98" opacity="1" class=""></circle>
		<path
			d="m64.14 41.36-15-39.38c-.01-.03-.03-.05-.04-.07l-.03-.09c-.01-.02-.04-.03-.05-.04-.04-.05-.09-.08-.13-.12-.04-.03-.07-.06-.11-.08a.727.727 0 0 0-.29-.07H35.52c-.31 0-.58.19-.69.48l-1.77 4.65a.75.75 0 0 0 .26.87c.89.63 1.42 1.64 1.42 2.72 0 1.84-1.49 3.33-3.33 3.33-.08 0-.16-.01-.23-.02l-.15-.02a.741.741 0 0 0-.77.47l-2.68 7.03c-.15.38.05.81.43.95.38.15.81-.05.95-.43l2.48-6.51c2.64-.01 4.78-2.17 4.78-4.81 0-1.36-.59-2.66-1.59-3.56l1.4-3.67h11.35l-9.56 25.1c-.15.38.05.81.43.95a.73.73 0 0 0 .95-.43l9.25-24.29 14.31 37.57c.38 1 .25 2.08-.36 2.96s-1.57 1.38-2.64 1.38H56.4c-.41 0-.74.33-.74.74s.33.74.74.74h3.37a4.676 4.676 0 0 0 4.37-6.35z"
			opacity="1" class=""></path>
	</g>
</svg>