<svg xmlns="http://www.w3.org/2000/svg" version="1.1" xmlns:xlink="http://www.w3.org/1999/xlink" width="32" height="32"
    x="0" y="0" viewBox="0 0 74 74" style="fill:#171717;storke:#171717" xml:space="preserve">
    <g>
        <path
            d="M53.484 69.859H27.539a4.046 4.046 0 0 1-4.04-4.041V29.792a16.7 16.7 0 0 1 2.3-8.457l6.17-10.482V5.45h17.084v5.4l6.169 10.482a16.687 16.687 0 0 1 2.3 8.457v36.029a4.045 4.045 0 0 1-4.038 4.041zM33.972 7.45v3.95l-6.447 10.95a14.7 14.7 0 0 0-2.025 7.442v36.026a2.042 2.042 0 0 0 2.04 2.041h25.944a2.043 2.043 0 0 0 2.041-2.041V29.792A14.688 14.688 0 0 0 53.5 22.35L47.053 11.4V7.45z"
            opacity="1" class=""></path>
        <path
            d="M48.453 7.448H32.571a2.109 2.109 0 0 1-2.106-2.106V1.965a2.109 2.109 0 0 1 2.106-2.106h15.882a2.11 2.11 0 0 1 2.107 2.106v3.377a2.11 2.11 0 0 1-2.107 2.106zM32.571 1.859a.107.107 0 0 0-.106.106v3.377a.107.107 0 0 0 .106.106h15.882a.107.107 0 0 0 .107-.106V1.965a.107.107 0 0 0-.107-.106zM30.333 42.275a5.976 5.976 0 0 1-3.114-.929 3.87 3.87 0 0 0-2.743-.642l-.256-1.984a5.834 5.834 0 0 1 3.963.873 4.018 4.018 0 0 0 5.233-.675 6 6 0 0 1 7.574-.977 4.023 4.023 0 0 0 5.236-.674 6 6 0 0 1 7.578-.978 3.886 3.886 0 0 0 2.744.642l.256 1.983a5.825 5.825 0 0 1-3.964-.872 4.024 4.024 0 0 0-5.238.675 6 6 0 0 1-7.576.977 4.018 4.018 0 0 0-5.233.675 5.832 5.832 0 0 1-3.612 1.85 6.6 6.6 0 0 1-.848.056z"
            opacity="1" class=""></path>
    </g>
</svg>