<svg xmlns="http://www.w3.org/2000/svg" version="1.1" xmlns:xlink="http://www.w3.org/1999/xlink" width="32" height="32"
	x="0" y="0" viewBox="0 0 512 512" style="fill:#171717;storke:#171717" xml:space="preserve">
	<g>
		<path
			d="M169.237 217.853h-20.036a3.257 3.257 0 1 1 0-6.514h20.036a3.257 3.257 0 1 1 0 6.514zM194.304 217.853h-8.598a3.257 3.257 0 1 1 0-6.514h8.598a3.257 3.257 0 1 1 0 6.514zM423.411 341.73c-1.834-.153-3.354 1.22-3.483 3.015l-.651 9.067a3.258 3.258 0 0 0 6.498.465l.652-9.067a3.258 3.258 0 0 0-3.016-3.48zM421.556 368.098a3.265 3.265 0 0 0-3.478 3.019l-3.517 49.714a3.257 3.257 0 1 0 6.498.46l3.517-49.714a3.257 3.257 0 0 0-3.02-3.479zM80.989 106.068c-1.756-.2-3.399 1.08-3.603 2.87-.327 2.903-.156 4.799-.204 12.899a3.257 3.257 0 1 0 6.514 0c.039-8.325-.102-9.853.163-12.167a3.258 3.258 0 0 0-2.87-3.602zM133.777 83.639a3.257 3.257 0 1 0 0-6.514h-20.924c-10.687 0-20.72 4.744-27.526 13.017a3.256 3.256 0 1 0 5.027 4.14c5.565-6.763 13.766-10.642 22.499-10.642l20.924-.001z"
			opacity="1" class=""></path>
		<path
			d="M419.996 97.972h-17.293l29.456-60.334c6.342-12.985.966-28.635-12.025-34.975-12.983-6.339-28.634-.969-34.977 12.026l-40.661 83.283h-231.64c-8.173 0-14.822 6.648-14.822 14.821v11.218c0 8.162 6.632 14.804 14.793 14.82l22.452 319.34c.835 12.288 11.127 21.914 23.43 21.914h1.346v6.837c0 13.829 11.252 25.08 25.081 25.08h162.581c13.829 0 25.081-11.251 25.081-25.08v-6.837h1.346c12.303 0 22.595-9.626 23.43-21.906l22.452-319.349c8.16-.016 14.793-6.658 14.793-14.82v-11.218c-.001-8.172-6.65-14.82-14.823-14.82zm-28.987-80.426c4.775-9.774 16.531-13.785 26.267-9.03 9.75 4.759 13.796 16.507 9.03 26.264l-30.852 63.191h-43.711zM126.383 238.685H406.47l-9.488 135.03h-261.11l-9.489-135.03zM366.284 486.92c0 10.237-8.328 18.566-18.567 18.566H185.136c-10.239 0-18.567-8.328-18.567-18.566v-6.837h199.716zm7.86-13.352H158.708c-8.89 0-16.328-6.958-16.931-15.849l-5.448-77.49h260.194l-5.448 77.5c-.603 8.882-8.04 15.839-16.931 15.839zm32.789-241.397H125.92l-6.562-93.342h294.138zm21.371-108.162c0 4.58-3.728 8.307-8.308 8.307H112.857c-4.58 0-8.308-3.727-8.308-8.307v-11.218c0-4.58 3.728-8.307 8.308-8.307h307.139c4.58 0 8.308 3.727 8.308 8.307z"
			opacity="1" class=""></path>
		<path
			d="M204.893 326.088c10.967 0 19.89-8.922 19.89-19.888s-8.924-19.889-19.89-19.889c-10.967 0-19.888 8.923-19.888 19.889s8.922 19.888 19.888 19.888zm0-33.264c7.377 0 13.376 6 13.376 13.375 0 7.374-6 13.374-13.376 13.374-7.374 0-13.374-6-13.374-13.374.001-7.374 6.001-13.375 13.374-13.375zM315.529 326.088a3.257 3.257 0 0 0 3.257-3.257v-13.373h3.661c4.036 0 7.32 3.299 7.32 7.354v6.021a3.257 3.257 0 1 0 6.514 0v-6.021c0-3.935-1.662-7.474-4.298-10.001 3.239-2.641 4.569-6.376 4.253-10.007v-.014c-.539-5.875-5.865-10.477-12.125-10.477h-8.583a3.257 3.257 0 0 0-3.257 3.257v33.263a3.258 3.258 0 0 0 3.258 3.255zm3.257-33.264h5.326c2.876 0 5.402 2.041 5.636 4.551.264 3.048-2.086 5.568-5.038 5.568h-5.923v-10.119zM346.198 292.824h12.201v30.006a3.257 3.257 0 1 0 6.514 0v-30.006h12.198a3.257 3.257 0 1 0 0-6.514h-30.913a3.257 3.257 0 1 0 0 6.514zM152.866 291.131l9.259 17.396v14.303a3.257 3.257 0 1 0 6.514 0v-14.297l9.323-17.428a3.26 3.26 0 0 0-1.336-4.409c-1.578-.849-3.557-.249-4.41 1.335l-6.827 12.765-6.773-12.725a3.257 3.257 0 0 0-5.75 3.06zM242.7 324.1c7.01 3.375 15.033 2.336 20.972-2.397a3.256 3.256 0 0 0 1.226-2.547v-9.607a3.257 3.257 0 0 0-3.257-3.257h-9.901a3.257 3.257 0 1 0 0 6.514h6.643v4.681c-3.906 2.494-8.61 2.79-12.857.744-4.669-2.249-7.57-6.86-7.57-12.031 0-5.172 2.901-9.782 7.573-12.033 4.705-2.268 9.967-1.656 14.081 1.623a3.256 3.256 0 0 0 4.577-.518 3.255 3.255 0 0 0-.516-4.576c-6.033-4.806-14.068-5.718-20.969-2.399-6.944 3.346-11.26 10.206-11.26 17.902.001 7.698 4.314 14.557 11.258 17.901zM288.585 326.088c9.39 0 17.027-7.639 17.027-17.027v-19.492a3.257 3.257 0 1 0-6.514 0v19.492c0 5.798-4.718 10.514-10.514 10.514s-10.514-4.716-10.514-10.514v-19.492a3.257 3.257 0 1 0-6.514 0v19.492c.001 9.388 7.64 17.027 17.029 17.027z"
			opacity="1" class=""></path>
	</g>
</svg>